<?xml version="1.0" encoding="UTF-8"?>
<svg width="108px" height="108px" viewBox="0 0 108 108" version="1.1" xmlns="http://www.w3.org/2000/svg" xmlns:xlink="http://www.w3.org/1999/xlink">
    <title>Rectangle</title>
    <defs>
        <rect id="path-1" x="0" y="0" width="108" height="108"></rect>
        <path d="M66.6274107,60.0834124 C65.8706478,62.8902245 63.9953835,65.3599097 61.3193015,66.8404631 C60.8038608,67.1272871 60.2712877,67.3812207 59.6985758,67.588237 C59.0808302,67.8116985 58.4493786,67.9674444 57.8252695,68.0811099 C56.1340562,68.3805096 54.4433324,68.2828057 52.8500185,67.8378174 C51.6522185,67.5006904 50.5190322,66.9725086 49.4969617,66.2711683 C47.9300807,65.1964248 46.6368288,63.7168387 45.7885299,61.9141524 C45.6544076,61.6278121 45.5183273,61.3366349 45.4072114,61.0362678 C45.0826747,60.160318 44.8922602,59.2640535 44.8002347,58.3760116 C44.5966038,56.407422 44.930441,54.456245 45.7297902,52.711117 C46.2422939,51.5938094 46.9476596,50.5688852 47.8121119,49.6702023 C48.9531302,48.482277 50.376099,47.521199 52.0447954,46.9180463 C52.4383513,46.7758436 52.8407181,46.6583086 53.2406374,46.5635067 C54.4785762,46.2612049 55.7277734,46.1891361 56.9461323,46.3066711 C58.7734259,46.4827317 60.5184839,47.1076501 62.0373941,48.0987164 C63.0604436,48.7724867 63.9860831,49.6097419 64.7501884,50.6056451 C65.4041569,51.4574108 65.9391774,52.413652 66.3307753,53.4719502 C66.6915349,54.4465714 66.8956553,55.4386051 66.9681009,56.4277367 C67.0664898,57.6703182 66.9470525,58.901775 66.6274107,60.0834124 M81.3420504,55.3167645 C80.4692075,55.2678633 79.6502438,55.6847065 79.0088819,56.4056046 C78.136039,57.3871777 76.6721215,57.6178809 75.4772008,57.057489 C73.298486,56.0360852 71.5516029,54.220037 70.6611994,51.9157657 C70.4189426,51.2867544 70.1232057,50.7823623 70.6440379,48.3735844 C71.4514275,44.6373759 73.3208358,41.2056167 75.9780777,38.4300799 L76.8485259,37.5206756 C79.0272407,35.2451928 81.758317,33.5612568 84.7783454,32.608078 C85.2281369,32.4661068 85.6236501,32.2231783 85.9337547,31.8753489 C87.1721779,30.4867917 86.5775113,27.9683805 84.6047347,26.2505291 C82.6319581,24.5326777 80.0285955,24.265693 78.7901723,25.6546445 C78.4940363,25.9866993 78.302865,26.3834299 78.2110708,26.8184139 C77.3988919,30.6583403 75.7805207,34.2860986 73.051839,37.1357759 L69.5225525,40.8215058 C67.3821518,43.0571577 64.1086916,43.7449292 61.1804574,42.697103 C61.1493272,42.6856664 61.118197,42.6746242 61.0870668,42.663582 C58.1584335,41.6358683 56.087078,39.0425279 55.8755523,35.9783163 L55.5387075,31.095296 C55.2824821,27.3772283 56.1728856,23.7262025 57.6922787,20.3157389 C57.85671,19.9470082 57.9341364,19.5546156 57.9085937,19.1511808 C57.7904586,17.3031891 55.5674431,15.9382939 52.943327,16.1019551 C50.3192109,16.2656163 48.2873667,17.8959188 48.4055019,19.7435162 C48.4426186,20.324415 48.6892656,20.8556238 49.0915635,21.305988 C51.1349817,23.5933016 52.1970004,26.5790347 52.4069297,29.6231337 L52.7804921,35.0377572 C53.0255426,38.5917693 51.1836725,41.969895 48.0447108,43.7216617 C47.9764639,43.7595207 47.9094142,43.7973797 47.8423645,43.8360274 C46.4806179,44.6164746 44.9759916,45.0281911 43.4665761,45.0743317 C41.7292715,45.1275709 40.0729853,43.7902811 39.9328994,42.0779508 C39.8582668,41.1697296 39.4799151,40.388888 38.7926561,39.9132845 C37.258097,38.8516555 34.7912282,39.7164967 33.2834091,41.8448814 C31.77559,43.9732662 31.7971417,46.5595081 33.3321,47.6211371 C34.0109778,48.0908252 34.8714484,48.1819233 35.751076,47.9535863 C37.2804468,47.5564614 38.925159,48.1783741 39.6144135,49.5846776 C40.375507,51.136896 40.6425083,52.9225781 40.3351974,54.7043165 C40.3292108,54.7402037 40.3232242,54.7760908 40.3172376,54.811978 C39.7820377,58.0540479 37.4436808,60.7179796 34.2368712,61.5840038 L29.0904108,62.9737441 C25.5615234,63.9265285 21.8003568,64.1398797 18.2914247,63.1168984 C17.8643822,62.9922792 17.4245684,62.9701948 16.9915393,63.0679972 C15.1656334,63.4812911 14.1606868,65.8691677 14.7473713,68.401776 C15.3340558,70.9343843 17.2900699,72.6526301 19.1163749,72.2397305 C19.6256331,72.1245761 20.069438,71.8552252 20.4318254,71.471903 C23.179265,68.5678034 26.851032,66.6795865 30.731531,65.6305772 L35.3160515,64.3914842 C37.9269971,63.6855719 41.2240045,64.4096249 43.1005967,66.393278 C46.0380103,69.4977147 44.7101876,73.9985958 43.3360687,77.2990317 C42.7497833,78.7069127 41.7376527,80.2378354 40.3064618,80.580538 C39.5721084,80.7564246 38.9606794,81.142113 38.5827268,81.7364202 C37.5865605,83.3044131 38.5839241,85.6950502 40.8109307,87.0769032 C43.0375381,88.4587561 45.6500802,88.3077145 46.6466456,86.7401159 C47.145527,85.9553307 47.2313346,84.9721802 46.890898,84.0107198 C46.2355674,82.1623337 46.5325016,79.4132194 47.7294178,77.852325 C48.8373336,76.4081625 50.1420082,75.0748164 51.5680108,74.1476656 C54.386092,72.3146598 57.7034537,72.8032773 59.9360477,75.2921111 C61.6059035,77.1535112 62.2372878,79.590289 63.0586461,81.8768139 C63.7886093,83.908185 63.7906049,86.1505411 62.91417,88.1243351 C62.618034,88.7904166 62.5565718,89.4880472 62.7896492,90.1355936 C63.4178407,91.8794731 65.9353957,92.5869629 68.4126412,91.7158119 C70.8894875,90.8442665 72.3885263,88.7245577 71.7603349,86.9802839 C71.5120915,86.292118 70.9693085,85.7687964 70.2501211,85.4406852 C68.1695862,84.49145 66.5807487,82.7314016 65.8136687,80.5974957 L65.6947353,80.266624 C64.0727722,75.755095 65.0258352,70.7746667 68.0682135,67.0483173 C68.1392542,66.9611627 68.2090976,66.8732195 68.2785418,66.7844875 C70.0002813,64.5756524 72.2791715,62.921688 74.832646,61.9894105 C76.1860114,61.4952719 77.7381312,61.9992696 78.5056104,63.2068134 C79.0647566,64.0870348 79.8725454,64.6584689 80.8036576,64.710525 C82.6738642,64.8154259 84.3109933,62.7974632 84.4594604,60.203334 C84.6083266,57.6092048 83.2126561,55.4216654 81.3420504,55.3167645" id="path-3"></path>
    </defs>
    <g id="LiveMind" stroke="none" stroke-width="1" fill="none" fill-rule="evenodd">
        <g id="512x512-copy-11" transform="translate(-182, -202)">
            <g id="Mask" transform="translate(182, 202)">
                <mask id="mask-2" fill="white">
                    <use xlink:href="#path-1"></use>
                </mask>
                <use fill="#02231E" xlink:href="#path-1"></use>
                <mask id="mask-4" fill="white">
                    <use xlink:href="#path-3"></use>
                </mask>
                <use fill="#DAA520" transform="translate(50.58, 54.0886) rotate(-5) translate(-50.58, -54.0886)" xlink:href="#path-3"></use>
            </g>
        </g>
    </g>
</svg>