<?xml version="1.0" encoding="UTF-8"?>
<svg width="60px" height="60px" viewBox="0 0 60 60" version="1.1" xmlns="http://www.w3.org/2000/svg" xmlns:xlink="http://www.w3.org/1999/xlink">
    <title>link</title>
    <g id="Page-2" stroke="none" stroke-width="1" fill="none" fill-rule="evenodd">
        <g id="link" fill="#14b8a6" fill-rule="nonzero">
            <rect id="Rectangle" opacity="0" x="5.44065056e-07" y="5.44065056e-07" width="59.5954" height="59.8371"></rect>
            <path d="M28.9627005,18.1742005 L25.6888005,21.4701005 C29.7757005,21.6019005 32.4344005,22.7445005 34.4998005,24.8319005 C39.5536005,29.8636005 39.5316005,37.0926005 34.4779005,42.1244005 L25.2274005,51.3748005 C20.1517005,56.4286005 12.9666005,56.4725005 7.93491054,51.4408005 C2.85922054,46.3651005 2.90317054,39.1581005 7.95688054,34.1263005 L14.1971005,27.8641005 C13.5599005,26.3700005 13.3841005,24.5462005 13.6917005,22.8983005 L4.99057054,31.5995005 C-1.62319946,38.2132005 -1.71108946,47.6175005 5.01254054,54.3412005 C11.7362005,61.0648005 21.1624005,60.9769005 27.7542005,54.3631005 L37.4442005,44.6732005 C44.0580005,38.0374005 44.1458005,28.6331005 37.4222005,21.9095005 C35.4227005,19.9320005 32.9398005,18.6136005 28.9627005,18.1742005 Z M30.2811005,41.1795005 L33.5331005,37.8836005 C29.4681005,37.7518005 26.8094005,36.6092005 24.7440005,34.5218005 C19.6903005,29.4901005 19.7122005,22.2611005 24.7660005,17.2293005 L34.0164005,7.97885054 C39.0921005,2.92514054 46.2772005,2.88120054 51.3089005,7.91293054 C56.3846005,12.9886005 56.3407005,20.1956005 51.2870005,25.2274005 L45.0467005,31.4896005 C45.6839005,32.9837005 45.8597005,34.8075005 45.5521005,36.4554005 L54.2533005,27.7542005 C60.8670005,21.1405005 60.9330005,11.7362005 54.2313005,5.01254054 C47.4857005,-1.71108946 38.0814005,-1.62319946 31.4896005,4.99057054 L21.7997005,14.6805005 C15.1859005,21.2943005 15.0980005,30.7206005 21.8216005,37.4442005 C23.8211005,39.4217005 26.2821005,40.7401005 30.2811005,41.1795005 Z" id="Shape" fill-opacity="0.85"></path>
        </g>
    </g>
</svg>