<?xml version="1.0" encoding="UTF-8"?>
<svg width="409px" height="88px" viewBox="0 0 409 88" version="1.1" xmlns="http://www.w3.org/2000/svg" xmlns:xlink="http://www.w3.org/1999/xlink">
    <title>logo</title>
    <g id="Infographics" stroke="none" stroke-width="1" fill="none" fill-rule="evenodd">
        <g id="pen-front" transform="translate(-94, -14)" fill="#DAA520">
            <g transform="translate(7.047, 3)" id="Group">
                <g id="logo" transform="translate(88.873, 0)">
                    <g id="nur-verse" transform="translate(0, 34.24)" fill-rule="nonzero" stroke="#DAA520" stroke-width="2">
                        <path d="M4.224,20.592 C4.224,10.296 10.912,1.76 21.56,1.76 C32.12,1.76 38.28,7.568 38.28,18.832 L38.28,43.648 C38.28,44.88 39.16,45.76 40.392,45.76 C41.624,45.76 42.504,44.88 42.504,43.648 L42.504,18.832 C42.504,6.688 34.76,0 21.648,0 C14.432,0 7.656,3.872 4.224,11.792 L4.224,3.872 C4.224,2.64 3.344,1.76 2.112,1.76 C0.88,1.76 0,2.64 0,3.872 L0,43.648 C0,44.88 0.88,45.76 2.112,45.76 C3.344,45.76 4.224,44.88 4.224,43.648 L4.224,20.592 Z" id="Path"></path>
                        <path d="M55.704,3.872 L55.704,29.656 C55.704,41.536 64.328,47.52 74.36,47.52 C84.304,47.52 92.928,41.536 92.928,29.656 L92.928,3.872 C92.928,2.64 92.048,1.76 90.816,1.76 C89.584,1.76 88.704,2.64 88.704,3.872 L88.704,29.656 C88.704,40.48 83.512,45.76 74.36,45.76 C65.648,45.76 59.928,41.184 59.928,29.656 L59.928,3.872 C59.928,2.64 59.048,1.76 57.816,1.76 C56.584,1.76 55.704,2.64 55.704,3.872 Z" id="Path"></path>
                        <path d="M107.448,3.872 L107.448,43.648 C107.448,44.88 108.328,45.76 109.56,45.76 C110.792,45.76 111.672,44.88 111.672,43.648 L111.672,23.056 C111.672,10.472 116.688,2.2 126.72,1.76 C127.248,1.76 127.6,1.408 127.6,0.88 C127.6,0.352 127.248,0 126.72,0 C119.416,0.352 114.752,3.696 111.672,11.704 L111.672,3.872 C111.672,2.64 110.792,1.76 109.56,1.76 C108.328,1.76 107.448,2.64 107.448,3.872 Z" id="Path"></path>
                        <path d="M223.596,45.76 C224.212,45.76 224.74,45.408 225.004,44.88 L243.396,3.872 C244.012,2.64 243.396,1.76 242.076,1.76 C240.668,1.76 239.348,2.64 238.908,3.96 L223.596,43.648 L208.196,3.872 C207.756,2.64 206.524,1.76 205.116,1.76 C203.708,1.76 203.18,2.552 203.796,3.872 L222.276,44.88 C222.452,45.408 222.98,45.76 223.596,45.76 Z" id="Path"></path>
                        <path d="M281.148,39.072 C278.068,43.736 273.404,45.76 267.772,45.76 C257.74,45.76 251.668,37.224 251.668,23.936 L276.484,23.936 C282.82,23.936 287.396,19.624 285.548,13.816 C282.908,5.544 276.836,0 267.948,0 C255.716,0 247.444,10.472 247.444,23.32 C247.444,37.048 255.716,47.52 267.86,47.52 C274.02,47.52 279.124,44.88 282.732,40.656 C283.172,40.04 283.172,39.336 282.644,38.896 C282.116,38.368 281.588,38.456 281.148,39.072 Z M251.668,22.176 C251.668,9.768 257.828,1.76 267.684,1.76 C278.244,1.76 282.644,10.032 282.732,22.176 L251.668,22.176 Z" id="Shape"></path>
                        <path d="M299.364,3.872 L299.364,43.648 C299.364,44.88 300.244,45.76 301.476,45.76 C302.708,45.76 303.588,44.88 303.588,43.648 L303.588,23.056 C303.588,10.472 308.604,2.2 318.636,1.76 C319.164,1.76 319.516,1.408 319.516,0.88 C319.516,0.352 319.164,0 318.636,0 C311.332,0.352 306.668,3.696 303.588,11.704 L303.588,3.872 C303.588,2.64 302.708,1.76 301.476,1.76 C300.244,1.76 299.364,2.64 299.364,3.872 Z" id="Path"></path>
                        <path d="M342.044,45.76 C336.06,45.76 331.22,43.208 328.14,38.72 C327.612,37.928 326.82,37.84 326.116,38.456 C325.412,39.072 325.236,40.04 325.94,40.744 C329.812,44.968 335.268,47.52 341.868,47.52 C350.844,47.52 359.116,42.856 359.116,33.264 C359.116,25.784 352.604,22 341.428,20.944 C336.5,20.504 330.252,18.48 330.252,11.968 C330.252,6.336 335.62,1.76 342.66,1.76 C348.292,1.76 351.9,3.872 354.804,7.656 C355.332,8.36 356.212,8.536 356.916,7.92 C357.708,7.392 357.796,6.512 357.092,5.808 C353.484,2.2 349.172,0 342.924,0 C334.652,0 326.116,4.4 326.116,13.376 C326.116,21.384 334.74,24.2 344.156,24.992 C351.636,25.608 354.98,29.304 354.98,34.76 C354.98,41.448 348.908,45.76 342.044,45.76 Z" id="Path"></path>
                        <path d="M400.74,39.072 C397.66,43.736 392.996,45.76 387.364,45.76 C377.332,45.76 371.26,37.224 371.26,23.936 L396.076,23.936 C402.412,23.936 406.988,19.624 405.14,13.816 C402.5,5.544 396.428,0 387.54,0 C375.308,0 367.036,10.472 367.036,23.32 C367.036,37.048 375.308,47.52 387.452,47.52 C393.612,47.52 398.716,44.88 402.324,40.656 C402.764,40.04 402.764,39.336 402.236,38.896 C401.708,38.368 401.18,38.456 400.74,39.072 Z M371.26,22.176 C371.26,9.768 377.42,1.76 387.276,1.76 C397.836,1.76 402.236,10.032 402.324,22.176 L371.26,22.176 Z" id="Shape"></path>
                    </g>
                    <g id="icons/app-gold" transform="translate(118.7907, 11.9391)">
                        <path d="M55.7156074,49.136688 C55.0698925,51.5568364 53.4698058,53.6863 51.1864141,54.9628938 C50.7466095,55.2102052 50.2921866,55.4291571 49.8035149,55.607655 C49.2764177,55.8003327 48.7376258,55.9346232 48.2050989,56.0326302 C46.7620555,56.290785 45.3194297,56.2065406 43.9599199,55.8228535 C42.937886,55.5321688 41.9709842,55.0767488 41.0988931,54.4720245 C39.7619374,53.5453367 38.6584582,52.2695769 37.9346393,50.715227 C37.8201982,50.4683326 37.7040865,50.2172678 37.6092758,49.958279 C37.3323618,49.2029992 37.1698889,48.4302032 37.0913673,47.6644972 C36.9176174,45.9670986 37.2024671,44.284714 37.8845191,42.7799931 C38.3218177,41.8166047 38.9236775,40.9328732 39.6612794,40.157992 C40.6348638,39.1337141 41.8490251,38.3050333 43.2728558,37.7849704 C43.608661,37.6623574 43.9519842,37.5610139 44.2932191,37.4792719 C45.3495018,37.2186148 46.4153909,37.1564742 47.4549669,37.2578177 C49.0141221,37.4096243 50.503109,37.9484545 51.7991333,38.8029925 C52.6720597,39.3839449 53.4618701,40.1058606 54.1138501,40.9645691 C54.6718547,41.6989963 55.128366,42.5235066 55.4625005,43.4360147 C55.7703219,44.2763729 55.9444896,45.131745 56.0063044,45.9846148 C56.0902557,47.0560194 55.9883447,48.1178319 55.7156074,49.136688 M73.2263442,44.6154356 C72.312904,44.5637212 71.455849,45.0045444 70.7846563,45.766914 C69.8712161,46.8049546 68.3392093,47.0489295 67.0887109,46.4562997 C64.8086605,45.376137 62.9805271,43.4556161 62.0487094,41.0187857 C61.7951849,40.353589 61.4856928,39.8201805 62.0307497,37.2728315 C62.8756924,33.3216881 64.8320499,29.6925082 67.6128844,26.7573016 L68.5238186,25.7955815 C70.803869,23.3891958 73.6619721,21.6083871 76.8224669,20.6003742 C77.2931789,20.4502358 77.7070881,20.1933322 78.0316162,19.825493 C79.3276405,18.3570556 78.7053149,15.6937664 76.6407813,13.8770912 C74.5762477,12.060416 71.8517984,11.7780724 70.5557741,13.2469268 C70.2458644,13.598084 70.0458013,14.0176375 69.9497377,14.477645 C69.099783,18.5384729 67.4061387,22.3749272 64.5505416,25.3885395 L60.8571022,29.2863003 C58.617148,31.6505638 55.1914339,32.3779011 52.1270027,31.269796 C52.0944246,31.2577015 52.0618465,31.2460241 52.0292684,31.2343467 C48.9644196,30.1475111 46.7967219,27.4049822 46.5753578,24.1644941 L46.2228459,19.0005657 C45.954703,15.0686066 46.8865206,11.2075463 48.4765832,7.60088717 C48.6486625,7.21094427 48.7296901,6.79597829 48.7029593,6.36933487 C48.5793296,4.41503278 46.252918,2.97161845 43.50675,3.14469471 C40.7605819,3.31777097 38.6342334,5.04186078 38.7578632,6.99574583 C38.7967063,7.6100623 39.0548253,8.17183032 39.4758347,8.64810283 C41.6142956,11.067 42.7257106,14.2244949 42.945404,17.4437134 L43.3363414,23.1698269 C43.5927896,26.9282926 41.6652511,30.5007535 38.3802912,32.3532951 C38.30887,32.393332 38.2387017,32.433369 38.1685335,32.47424 C36.7434498,33.2995844 35.1688409,33.7349859 33.58922,33.7837809 C31.7711105,33.8400828 30.0377878,32.425862 29.8911862,30.6150256 C29.8130823,29.6545566 29.4171329,28.8287951 28.6979084,28.3258313 C27.0919744,27.2031294 24.5103676,28.1177228 22.9324173,30.3685483 C21.3544671,32.6193738 21.3770212,35.3543958 22.9833728,36.4770977 C23.6938264,36.9738058 24.5943189,37.0701446 25.5148595,36.8286719 C27.1153638,36.4087013 28.8365742,37.0663911 29.5578871,38.5535959 C30.3543802,40.1951095 30.6338002,42.0835175 30.3121957,43.967755 C30.3059307,44.0057067 30.2996657,44.0436583 30.2934007,44.08161 C29.7333077,47.5101882 27.28619,50.3273693 23.9302265,51.2432138 L18.5443958,52.7129024 C14.8513741,53.7204982 10.9152696,53.9461229 7.24313127,52.864292 C6.79622636,52.7325038 6.33595607,52.7091489 5.88278614,52.8125776 C3.97195439,53.2496473 2.92026601,55.7748926 3.53423818,58.4531956 C4.14821034,61.1314987 6.19520191,62.9485909 8.10645132,62.5119383 C8.63939587,62.3901593 9.10384284,62.1053133 9.48308551,61.6999395 C12.358313,58.6287742 16.2008599,56.6319329 20.2618472,55.5225766 L25.0596012,54.2122016 C27.7919862,53.4656799 31.2423427,54.2313859 33.2062183,56.3291537 C36.2802558,59.612181 34.8906739,64.3719868 33.4526425,67.8622886 C32.839088,69.3511615 31.7798816,70.9701544 30.2821236,71.3325719 C29.5136142,71.5185768 28.8737466,71.9264529 28.4782149,72.5549491 C27.4357152,74.2131448 28.4794679,76.7413094 30.8100561,78.2026569 C33.1402267,79.6640045 35.8742824,79.5042738 36.9171997,77.8464952 C37.4392849,77.0165632 37.5290835,75.9768545 37.1728126,74.9600836 C36.4870015,73.0053644 36.7977466,70.0981002 38.0503334,68.4474115 C39.2097801,66.9201698 40.5751373,65.5101196 42.0674656,64.5296321 C45.0166203,62.591178 48.4882779,63.1079045 50.8247135,65.7399148 C52.572237,67.7083967 53.232988,70.2853563 54.092549,72.7034193 C54.8564641,74.8516502 54.8585524,77.2230036 53.9413532,79.310345 C53.6314434,80.0147446 53.5671225,80.7525082 53.8110407,81.4373063 C54.4684503,83.2815069 57.103101,84.0296968 59.6955671,83.1084306 C62.2876156,82.1867474 63.8563772,79.945097 63.1989675,78.1004794 C62.9391779,77.372725 62.3711492,76.819298 61.6185113,76.4723113 C59.4412072,75.468469 57.7784704,73.6071694 56.9757122,71.3505051 L56.8512471,71.0005991 C55.1538438,66.229533 56.1512353,60.9625929 59.3351195,57.0218758 C59.4094645,56.9297074 59.4825564,56.836705 59.5552306,56.7428685 C61.357051,54.4069645 63.7419361,52.6578516 66.4141769,51.6719425 C67.8304895,51.1493773 69.4548009,51.6823688 70.2579768,52.9593797 C70.8431298,53.890238 71.6884901,54.4945453 72.6629099,54.549596 C74.6201028,54.6605317 76.3333775,52.5264805 76.4887501,49.7831175 C76.6445403,47.0397544 75.1839548,44.7263712 73.2263442,44.6154356" id="Fill-10" transform="translate(41.0335, 43.3167) rotate(-5) translate(-41.0335, -43.3167)"></path>
                    </g>
                </g>
            </g>
        </g>
    </g>
</svg>