<?xml version="1.0" encoding="UTF-8"?>
<svg width="77px" height="62px" viewBox="0 0 77 62" version="1.1" xmlns="http://www.w3.org/2000/svg" xmlns:xlink="http://www.w3.org/1999/xlink">
    <title>scissors</title>
    <g id="Page-2" stroke="none" stroke-width="1" fill="none" fill-rule="evenodd">
        <g id="scissors" fill="#14b8a6" fill-rule="nonzero">
            <rect id="Rectangle" fill="#000000" opacity="0" x="0" y="0" width="76.8823" height="61.1499"></rect>
            <path d="M74.2017,45.1978 C72.8833,48.9551 68.4448,49.4165 62.1167,47.1533 L39.2904,38.8397 L50.7864,32.714 L74.2017,45.1978 Z M24.7852,15.293 C24.7852,17.7759 24.7192,18.8086 26.4771,19.7534 L34.0288,23.7796 C32.3573,24.9164 31.2723,26.3901 30.5613,28.3697 C30.1598,28.0404 29.6341,27.7155 28.938,27.356 L23.7305,24.5654 C23.0713,24.2358 22.6758,24.126 22.1704,24.126 C19.8413,24.126 18.7646,26.521 13.5352,26.521 C7.31689,26.521 2.3291,21.5112 2.3291,15.293 C2.3291,9.03076 7.31689,3.97705 13.5352,3.97705 C19.7754,3.97705 24.7852,9.00879 24.7852,15.293 Z M6.43799,15.293 C6.43799,19.248 9.60205,22.4561 13.5352,22.4561 C17.5562,22.4561 20.7202,19.248 20.7202,15.293 C20.7202,11.272 17.5562,8.06396 13.5352,8.06396 C9.60205,8.06396 6.43799,11.272 6.43799,15.293 Z" id="Shape" fill-opacity="0.85"></path>
            <path d="M13.5352,58.7988 C19.7754,58.7988 24.7852,53.7891 24.7852,47.4829 C24.7852,45 24.7192,43.9893 26.4771,43.0225 L74.2017,17.5781 C72.8833,13.8428 68.4448,13.3594 62.1167,15.6226 L37.9248,24.4336 C34.6509,25.6201 33.2446,27.1802 32.4316,30.1685 L31.8823,32.2559 C31.5308,33.6401 30.9375,34.3872 28.938,35.4199 L23.7305,38.2104 C23.0713,38.54 22.6758,38.6499 22.1704,38.6499 C19.8413,38.6499 18.7646,36.2549 13.5352,36.2549 C7.31689,36.2549 2.3291,41.2646 2.3291,47.4829 C2.3291,53.7451 7.31689,58.7988 13.5352,58.7988 Z M13.5352,54.7119 C9.60205,54.7119 6.43799,51.5039 6.43799,47.4829 C6.43799,43.5278 9.60205,40.3198 13.5352,40.3198 C17.5562,40.3198 20.7202,43.5278 20.7202,47.4829 C20.7202,51.5039 17.5562,54.7119 13.5352,54.7119 Z M38.4741,32.2339 C37.2876,32.2339 36.2549,31.2231 36.2549,29.9927 C36.2549,28.7183 37.2876,27.7515 38.4741,27.7515 C39.7485,27.7515 40.7812,28.7183 40.7812,29.9927 C40.7812,31.2231 39.7485,32.2339 38.4741,32.2339 Z" id="Shape" fill-opacity="0.85"></path>
        </g>
    </g>
</svg>