<?xml version="1.0" encoding="UTF-8"?>
<svg width="58px" height="58px" viewBox="0 0 58 58" version="1.1" xmlns="http://www.w3.org/2000/svg" xmlns:xlink="http://www.w3.org/1999/xlink">
    <title>timer</title>
    <g id="Page-2" stroke="none" stroke-width="1" fill="none" fill-rule="evenodd">
        <g id="timer" fill="#14b8a6" fill-rule="nonzero">
            <rect id="Rectangle" fill="#000000" opacity="0" x="0" y="0" width="57.5903" height="57.2827"></rect>
            <path d="M28.6084,57.2388 C44.2749,57.2388 57.2388,44.2749 57.2388,28.6304 C57.2388,12.9639 44.2969,0 28.6304,0 C27.2021,0 26.5649,0.812988 26.5649,2.13135 L26.5649,13.2056 C26.5649,14.2822 27.2681,15.1172 28.3667,15.1172 C29.4434,15.1172 30.1465,14.2822 30.1465,13.2056 L30.1465,1.88965 L28.5425,4.10889 C42.2314,4.10889 53.1079,15.0293 53.1079,28.6304 C53.1079,42.2095 42.2095,53.1519 28.6084,53.1519 C15.0293,53.1519 4.06494,42.2095 4.08691,28.6304 C4.10889,22.4121 6.41602,16.7651 10.1953,12.4585 C10.9424,11.5356 11.0083,10.3931 10.1953,9.55811 C9.4043,8.70117 8.08594,8.76709 7.20703,9.82178 C2.74658,14.8755 0,21.4673 0,28.6304 C0,44.2749 12.9639,57.2388 28.6084,57.2388 Z" id="Path" fill-opacity="0.85"></path>
            <path d="M32.8931,32.3877 C35.0024,30.1685 34.563,27.2021 32.0142,25.4224 L17.2046,14.9414 C15.9082,14.0405 14.5898,15.3809 15.5127,16.6772 L25.9497,31.4868 C27.7295,34.0137 30.6958,34.4971 32.8931,32.3877 Z" id="Path" fill-opacity="0.85"></path>
        </g>
    </g>
</svg>