<?xml version="1.0" encoding="UTF-8"?>
<svg width="62px" height="45px" viewBox="0 0 62 45" version="1.1" xmlns="http://www.w3.org/2000/svg" xmlns:xlink="http://www.w3.org/1999/xlink">
    <title>trend</title>
    <g id="Page-2" stroke="none" stroke-width="1" fill="none" fill-rule="evenodd">
        <g id="trend" fill="#14b8a6" fill-rule="nonzero">
            <rect id="Rectangle" opacity="0" x="0" y="0" width="61.0181" height="45"></rect>
            <path d="M59.0186,9.29443 L55.1294,25.686 C54.7778,26.9165 53.6572,27.4219 52.7783,26.5649 L47.8345,21.5991 L35.6836,33.8159 C34.4971,35.0244 33.3325,35.5957 32.0801,35.5957 C30.8276,35.5957 29.6191,35.0244 28.4546,33.8159 L17.666,22.9175 C17.3145,22.5659 16.9849,22.3901 16.6553,22.3901 C16.3257,22.3901 15.9961,22.5659 15.6445,22.9175 C8.57841697,29.693285 4.81375328,33.2527802 4.35050893,33.5959858 C3.65564242,34.1107942 2.42013207,33.8159 1.81356837,33.164475 C1.20700466,32.51305 0.992426412,31.2032161 1.50961828,30.6519 C1.85441287,30.2843559 5.70180677,26.6441893 13.0518,19.7314 C14.2822,18.501 15.4028,17.9736 16.6553,17.9736 C17.9077,17.9736 19.0942,18.5229 20.2588,19.7314 L31.0693,30.6519 C31.4209,31.0034 31.7505,31.1572 32.0801,31.1572 C32.4097,31.1572 32.7393,30.9814 33.0908,30.6519 L44.9121,18.6768 L39.9902,13.7329 C39.1113,12.876 39.6167,11.7554 40.8472,11.4258 L57.2388,7.51465 C58.3594,7.229 59.3042,8.12988 59.0186,9.29443 Z" id="Path" fill-opacity="0.85"></path>
        </g>
    </g>
</svg>