<?xml version="1.0" encoding="UTF-8"?>
<svg width="62px" height="57px" viewBox="0 0 62 57" version="1.1" xmlns="http://www.w3.org/2000/svg" xmlns:xlink="http://www.w3.org/1999/xlink">
    <title>wand.and.stars</title>
    <g id="Page-2" stroke="none" stroke-width="1" fill="none" fill-rule="evenodd">
        <g id="wand.and.stars" transform="translate(30.7947, 28.4409) scale(-1, 1) translate(-30.7947, -28.4409)" fill="#14b8a6" fill-rule="nonzero">
            <rect id="Rectangle" opacity="0" x="0" y="0" width="61.5894" height="56.8818"></rect>
            <path d="M56.5356,56.0495 C57.6343,57.1701 59.436,57.1482 60.4468,56.0495 C61.5015,54.9289 61.5234,53.237 60.4468,52.1384 L33.3765,24.9802 C32.2998,23.8816 30.4761,23.8816 29.4653,24.9802 C28.3887,26.0788 28.4106,27.8147 29.4653,28.8913 L56.5356,56.0495 Z M39.7485,36.5817 L31.333,28.1442 C30.8496,27.6828 30.7178,27.1555 31.1792,26.6941 C31.5747,26.2985 32.124,26.4084 32.6074,26.8918 L41.0229,35.3073 L39.7485,36.5817 Z" id="Shape" fill-opacity="0.85"></path>
            <path d="M21.1816,55.8078 C21.6431,55.8078 21.9507,55.4782 22.0166,54.9948 C23.0273,47.4362 23.269,47.3264 30.9814,46.008 C31.5088,45.9421 31.8164,45.6784 31.8164,45.195 C31.8164,44.7336 31.5088,44.426 31.0693,44.3601 C23.313,42.8659 23.0273,42.9318 22.0166,35.3733 C21.9507,34.8899 21.6431,34.5822 21.1816,34.5822 C20.7422,34.5822 20.4126,34.8899 20.3687,35.3513 C19.314,43.0197 19.1382,43.1516 11.2939,44.3601 C10.8765,44.404 10.5469,44.7336 10.5469,45.195 C10.5469,45.6565 10.8765,45.9421 11.2939,46.008 C19.1382,47.5241 19.292,47.4802 20.3687,55.0388 C20.4126,55.4782 20.7422,55.8078 21.1816,55.8078 Z M7.73438,31.3083 C8.06396,31.3083 8.26172,31.0666 8.32764,30.759 C9.33838,25.5734 9.38232,25.156 14.8975,24.1892 C15.2271,24.1233 15.4468,23.9255 15.4468,23.5739 C15.4468,23.2224 15.2271,23.0246 14.8975,22.9587 C9.38232,21.9919 9.33838,21.5744 8.32764,16.3889 C8.26172,16.0813 8.06396,15.8396 7.73438,15.8396 C7.40479,15.8396 7.18506,16.0813 7.14111,16.3889 C6.13037,21.5744 6.08643,21.9919 0.571289,22.9587 C0.219727,23.0246 0,23.2224 0,23.5739 C0,23.9255 0.219727,24.1233 0.571289,24.1892 C6.08643,25.156 6.13037,25.5734 7.14111,30.759 C7.18506,31.0666 7.40479,31.3083 7.73438,31.3083 Z M23.0273,13.5105 C23.313,13.5105 23.4448,13.3127 23.5107,13.049 C24.4775,8.63253 24.4775,8.34688 29.1357,7.42403 C29.4214,7.35811 29.6191,7.20431 29.6191,6.91866 C29.6191,6.63302 29.4214,6.45723 29.1357,6.41329 C24.4775,5.46847 24.4775,5.20479 23.5107,0.788289 C23.4448,0.502645 23.313,0.326864 23.0273,0.326864 C22.7417,0.326864 22.5879,0.502645 22.522,0.788289 C21.5552,5.20479 21.5771,5.46847 16.897,6.41329 C16.6113,6.45723 16.4355,6.63302 16.4355,6.91866 C16.4355,7.18233 16.6113,7.35811 16.897,7.42403 C21.5771,8.34688 21.5552,8.63253 22.522,13.049 C22.5879,13.3127 22.7417,13.5105 23.0273,13.5105 Z M46.0767,23.2663 C46.4062,23.2663 46.626,23.0466 46.6699,22.717 C47.6807,17.5534 47.7466,17.1359 53.2397,16.1472 C53.5913,16.1032 53.811,15.8835 53.811,15.5539 C53.811,15.2024 53.5913,15.0046 53.2397,14.9387 C47.7466,13.9499 47.6807,13.5324 46.6699,8.36886 C46.626,8.03927 46.4062,7.81954 46.0767,7.81954 C45.7471,7.81954 45.5493,8.03927 45.4834,8.36886 C44.4727,13.5324 44.4287,13.9499 38.9136,14.9387 C38.584,15.0046 38.3643,15.2024 38.3643,15.5539 C38.3643,15.8835 38.584,16.1032 38.9136,16.1472 C44.4287,17.1359 44.4727,17.5534 45.4834,22.717 C45.5493,23.0466 45.7471,23.2663 46.0767,23.2663 Z" id="Shape" fill-opacity="0.85"></path>
        </g>
    </g>
</svg>